<svg
  xmlns="http://www.w3.org/2000/svg"
  viewBox="0 0 32 32"
  width="32"
  height="32"
  fill="none"
>
  <!-- Background -->
  <rect x="4" y="6" width="24" height="22" rx="2" fill="#E0E0E0" />
  <rect x="4" y="6" width="24" height="3" fill="#C0C0C0" />
  
  <!-- Springs -->
  <path
    d="M7 5C7 3.9 7.9 3 9 3C10.1 3 11 3.9 11 5"
    stroke="#000"
    stroke-width="1"
    fill="none"
  />
  <path
    d="M15 5C15 3.9 15.9 3 17 3C18.1 3 19 3.9 19 5"
    stroke="#000"
    stroke-width="1"
    fill="none"
  />
  <path
    d="M23 5C23 3.9 23.9 3 25 3C26.1 3 27 3.9 27 5"
    stroke="#000"
    stroke-width="1"
    fill="none"
  />

  <!-- Grid -->
  <g stroke="#000" stroke-width="1">
    <line x1="4" y1="10" x2="28" y2="10" />
    <line x1="4" y1="16" x2="28" y2="16" />
    <line x1="4" y1="22" x2="28" y2="22" />
    <line x1="12" y1="10" x2="12" y2="28" />
    <line x1="20" y1="10" x2="20" y2="28" />
  </g>
</svg>
