<svg enable-background="new 0 0 32 32" viewBox="0 0 32 32" xmlns="http://www.w3.org/2000/svg"><path d="m28.099 27.925-4.708-8.094c-.005-.008-.009-.016-.015-.023l-4.016-6.905v-11.543h1.64c.199 0 .36-.161.36-.36s-.161-.36-.36-.36h-10c-.199 0-.36.161-.36.36s.161.36.36.36h1.64v11.543l-4.015 6.902c-.006.01-.012.02-.018.029l-4.717 8.11c-.369.737-.33 1.596.103 2.296.433.701 1.184 1.12 2.008 1.12h19.998c.823 0 1.574-.419 2.007-1.119.433-.701.472-1.559.093-2.316zm-14.788-14.744c.032-.055.049-.118.049-.181v-2.64h2.64v-.72h-2.64v-2.28h2.64v-.72h-2.64v-2.28h2.64v-.72h-2.64v-2.28h5.28v11.64c0 .063.018.126.049.181l3.758 6.458h-12.893zm14.083 16.681c-.301.487-.822.777-1.395.777h-19.998c-.573 0-1.094-.29-1.396-.777-.301-.487-.328-1.084-.083-1.576l4.611-7.926h13.73l4.6 7.906c.259.512.231 1.109-.069 1.596z"/><path d="m0 0h32v32h-32z" fill="none"/></svg>