<svg fill="none" width="80" height="80" viewBox="0 0 20 20" stroke="currentColor" xmlns="http://www.w3.org/2000/svg"><g stroke="currentColor"><path d="m18.9875 17.7908-5.0324-8.06169c-.2974-.47648-.4551-1.02689-.4551-1.58859v-2.57023c0-.04679.0031-.09324.0118-.13922.0375-.19813.1704-.76552.4882-.93105.287-.14947-4.34868-.14876-4 0 .3369.14373.4604.75004.4915.94168.0063.0389.0085.07807.0085.11748v2.58134c0 .5617-.1577 1.11211-.4551 1.58859l-5.03239 8.06169c-.31201.4999-.24751 1.1102.31283 1.2925 2.67863.8714 10.67066.8714 13.34936 0 .5603-.1823.6248-.7926.3128-1.2925z" stroke-linecap="round"/><path d="m16 13.6118c-1.5 1-2.1676-1.2493-4.5.5-2 1.5-3-.5-3.5-.5" stroke-linecap="round"/><g stroke-linejoin="round"><path d="m13.5 15h.01v.01h-.01z"/><path d="m12.49 16.99h.01v.01h-.01z"/><path d="m7.49 17.99h.01v.01h-.01z"/><path d="m14 18h.01v.01h-.01z"/><path d="m15.5 16.49h.01v.01h-.01z"/><path d="m9.5 17.49h.01v.01h-.01z"/><path d="m8.5 16h.01v.01h-.01z"/></g></g></svg>